<?xml version="1.0" standalone="no"?>
<!DOCTYPE svg PUBLIC "-//W3C//DTD SVG 20010904//EN"
 "http://www.w3.org/TR/2001/REC-SVG-20010904/DTD/svg10.dtd">
<svg version="1.0" xmlns="http://www.w3.org/2000/svg"
 width="1024.000000pt" height="1024.000000pt" viewBox="0 0 1024.000000 1024.000000"
 preserveAspectRatio="xMidYMid meet">

<g transform="translate(0.000000,1024.000000) scale(0.100000,-0.100000)"
fill="#000000" stroke="none">
<path d="M1710 8777 c0 -55 140 -490 175 -543 26 -40 112 -73 335 -129 l125
-31 5 -130 5 -129 344 -3 c234 -1 349 -6 358 -13 10 -9 13 -64 13 -255 l0
-244 -359 0 c-318 0 -360 -2 -365 -16 -3 -9 -6 -105 -6 -214 0 -172 2 -199 17
-211 13 -12 412 -14 2497 -16 1365 -2 2605 0 2756 5 l275 7 0 220 0 220 -349
3 c-237 1 -354 6 -363 13 -10 9 -13 61 -13 239 0 206 2 228 18 243 16 15 60
17 363 19 l344 3 3 127 3 126 77 17 c97 21 285 81 335 107 31 15 45 32 67 81
50 112 170 501 158 513 -4 3 -78 -17 -165 -45 -538 -168 -1025 -248 -1708
-281 -782 -38 -2563 -32 -3230 10 -565 36 -1077 129 -1546 280 -87 27 -160 50
-163 50 -3 0 -6 -10 -6 -23z m4958 -985 c9 -12 12 -79 12 -254 l0 -238 -1560
0 -1560 0 2 252 3 252 25 6 c14 4 709 5 1545 2 1375 -4 1521 -5 1533 -20z"/>
<path d="M3850 4510 l0 -1780 385 0 385 0 0 549 0 549 438 4 c398 4 448 7 562
27 591 106 953 446 1044 980 18 109 21 314 5 427 -61 438 -374 798 -817 938
-99 31 -264 62 -401 76 -60 6 -418 10 -852 10 l-749 0 0 -1780z m1421 1160
c261 -18 401 -70 512 -191 110 -118 155 -264 144 -464 -14 -236 -116 -399
-309 -494 -144 -71 -206 -82 -513 -91 -148 -5 -318 -9 -377 -9 l-108 -1 0 630
0 630 253 0 c138 0 318 -5 398 -10z"/>
</g>
</svg>
